<svg xmlns="http://www.w3.org/2000/svg" version="1.1" xmlns:xlink="http://www.w3.org/1999/xlink" xmlns:svgjs="http://svgjs.com/svgjs" width="1920" height="1080" preserveAspectRatio="none" viewBox="0 0 1920 1080"><g mask="url(&quot;#SvgjsMask1002&quot;)" fill="none"><rect width="1920" height="1080" x="0" y="0" fill="url(#SvgjsLinearGradient1003)"></rect><path d="M1920 0L1232.92 0L1920 442.06z" fill="rgba(255, 255, 255, .1)"></path><path d="M1232.92 0L1920 442.06L1920 788.47L964.51 0z" fill="rgba(255, 255, 255, .075)"></path><path d="M964.51 0L1920 788.47L1920 847.32L447.71000000000004 0z" fill="rgba(255, 255, 255, .05)"></path><path d="M447.71000000000004 0L1920 847.32L1920 990.85L233.26000000000005 0z" fill="rgba(255, 255, 255, .025)"></path><path d="M0 1080L393.17 1080L0 998.97z" fill="rgba(0, 0, 0, .1)"></path><path d="M0 998.97L393.17 1080L670.44 1080L0 917.26z" fill="rgba(0, 0, 0, .075)"></path><path d="M0 917.26L670.44 1080L697.8800000000001 1080L0 649.5899999999999z" fill="rgba(0, 0, 0, .05)"></path><path d="M0 649.5899999999999L697.8800000000001 1080L1549.25 1080L0 206.81999999999994z" fill="rgba(0, 0, 0, .025)"></path></g><defs><mask id="SvgjsMask1002"><rect width="1920" height="1080" fill="#ffffff"></rect></mask><linearGradient x1="10.94%" y1="-19.44%" x2="89.06%" y2="119.44%" gradientUnits="userSpaceOnUse" id="SvgjsLinearGradient1003"><stop stop-color="rgba(240, 247, 255, 1)" offset="0"></stop><stop stop-color="rgba(230, 230, 230, 1)" offset="1"></stop></linearGradient></defs></svg>