<?xml version="1.0" standalone="no"?>
<!DOCTYPE svg PUBLIC "-//W3C//DTD SVG 20010904//EN"
 "http://www.w3.org/TR/2001/REC-SVG-20010904/DTD/svg10.dtd">
<svg version="1.0" xmlns="http://www.w3.org/2000/svg"
 width="300.000000pt" height="300.000000pt" viewBox="0 0 300.000000 300.000000"
 preserveAspectRatio="xMidYMid meet">
<metadata>
Created by potrace 1.10, written by Peter Selinger 2001-2011
</metadata>
<g transform="translate(0.000000,300.000000) scale(0.100000,-0.100000)"
fill="#000000" stroke="none">
<path d="M690 2989 c-312 -52 -571 -288 -662 -604 l-23 -80 0 -805 0 -805 23
-80 c62 -214 197 -390 386 -504 68 -40 198 -86 286 -100 88 -15 1512 -15 1600
0 321 51 579 283 672 604 l23 80 0 805 0 805 -23 80 c-62 214 -197 390 -386
504 -68 40 -198 86 -286 100 -81 13 -1531 13 -1610 0z m1625 -274 c92 -24 174
-73 250 -150 77 -76 126 -158 150 -250 23 -88 23 -1542 0 -1630 -24 -92 -73
-174 -150 -250 -76 -77 -158 -126 -250 -150 -88 -23 -1542 -23 -1630 0 -92 24
-174 73 -250 150 -77 76 -126 158 -150 250 -23 88 -23 1542 0 1630 48 182 215
350 396 399 83 22 1548 23 1634 1z"/>
<path d="M2247 2490 c-74 -22 -137 -108 -137 -186 0 -47 28 -111 61 -141 98
-90 254 -59 310 62 70 151 -74 313 -234 265z"/>
<path d="M1334 2256 c-301 -69 -542 -321 -595 -621 -18 -107 -7 -273 25 -370
82 -242 256 -416 501 -502 74 -25 91 -27 235 -27 144 0 161 2 235 27 245 86
416 257 502 502 25 74 27 91 27 235 0 144 -2 161 -27 235 -86 245 -260 419
-502 501 -67 23 -101 27 -210 30 -87 3 -150 -1 -191 -10z m246 -256 c212 -34
388 -212 420 -428 42 -270 -153 -531 -427 -572 -271 -42 -532 153 -573 428
-45 293 186 567 490 581 14 0 54 -4 90 -9z"/>
</g>
</svg>
