<?xml version="1.0" standalone="no"?>
<!DOCTYPE svg PUBLIC "-//W3C//DTD SVG 20010904//EN"
 "http://www.w3.org/TR/2001/REC-SVG-20010904/DTD/svg10.dtd">
<svg version="1.0" xmlns="http://www.w3.org/2000/svg"
 width="300.000000pt" height="300.000000pt" viewBox="0 0 300.000000 300.000000"
 preserveAspectRatio="xMidYMid meet">
<metadata>
Created by potrace 1.10, written by Peter Selinger 2001-2011
</metadata>
<g transform="translate(0.000000,300.000000) scale(0.100000,-0.100000)"
fill="#000000" stroke="none">
<path d="M1390 2909 c-306 -35 -586 -232 -727 -514 -75 -147 -112 -348 -92
-491 40 -292 262 -771 680 -1469 190 -317 210 -345 249 -345 35 0 46 13 168
211 347 560 640 1144 726 1444 39 136 48 220 35 332 -49 443 -389 783 -832
832 -105 12 -100 12 -207 0z m277 -135 c342 -70 598 -351 642 -704 14 -110 0
-203 -53 -365 -98 -294 -291 -677 -611 -1210 -73 -121 -138 -220 -145 -220
-24 0 -372 598 -532 915 -225 446 -301 689 -277 880 44 351 299 632 639 705
89 18 245 18 337 -1z"/>
<path d="M1393 2560 c-123 -22 -241 -88 -331 -185 -113 -120 -164 -246 -165
-405 -1 -174 56 -313 178 -436 115 -115 258 -174 425 -174 167 0 310 59 425
174 122 123 179 262 178 436 -2 260 -175 494 -422 571 -76 23 -214 32 -288 19z
m309 -162 c251 -119 351 -397 234 -643 -42 -88 -93 -147 -170 -197 -224 -145
-523 -85 -669 135 -158 237 -74 566 178 695 88 45 123 52 240 49 104 -2 114
-4 187 -39z"/>
</g>
</svg>
