<?xml version="1.0" standalone="no"?>
<!DOCTYPE svg PUBLIC "-//W3C//DTD SVG 20010904//EN"
 "http://www.w3.org/TR/2001/REC-SVG-20010904/DTD/svg10.dtd">
<svg version="1.0" xmlns="http://www.w3.org/2000/svg"
 width="512.000000pt" height="512.000000pt" viewBox="0 0 512.000000 512.000000"
 preserveAspectRatio="xMidYMid meet">
<metadata>
Created by potrace 1.10, written by Peter Selinger 2001-2011
</metadata>
<g transform="translate(0.000000,512.000000) scale(0.100000,-0.100000)"
fill="#000000" stroke="none">
<path d="M2115 5113 c-328 -40 -603 -171 -825 -393 -196 -196 -327 -444 -375
-715 -22 -119 -22 -350 0 -470 19 -107 72 -269 116 -357 73 -145 202 -317 305
-404 30 -26 54 -50 54 -54 0 -4 -21 -15 -47 -25 -84 -31 -295 -142 -388 -204
-136 -90 -239 -177 -365 -308 -322 -334 -520 -761 -581 -1250 -10 -78 -10
-110 -1 -140 48 -156 213 -220 346 -132 56 38 92 107 101 199 65 630 435 1149
996 1396 560 247 1272 210 1779 -92 223 -133 386 -287 531 -502 150 -223 234
-452 279 -763 22 -153 46 -204 114 -244 122 -71 270 -22 326 107 25 58 24 116
-6 288 -75 437 -269 827 -564 1133 -126 131 -229 218 -365 308 -93 62 -304
173 -387 204 -27 10 -48 19 -48 22 0 2 42 45 93 96 236 236 368 516 396 841
51 583 -275 1122 -820 1358 -196 84 -465 126 -664 101z m360 -472 c100 -26
241 -94 322 -155 167 -126 295 -329 339 -536 18 -84 18 -276 0 -360 -58 -274
-243 -508 -497 -629 -138 -66 -220 -84 -389 -84 -169 0 -251 18 -389 84 -254
121 -439 355 -497 629 -18 84 -18 276 0 360 77 361 361 635 729 706 98 19 279
11 382 -15z"/>
</g>
</svg>
