<?xml version="1.0" standalone="no"?>
<!DOCTYPE svg PUBLIC "-//W3C//DTD SVG 20010904//EN"
 "http://www.w3.org/TR/2001/REC-SVG-20010904/DTD/svg10.dtd">
<svg version="1.0" xmlns="http://www.w3.org/2000/svg"
 width="512.000000pt" height="512.000000pt" viewBox="0 0 512.000000 512.000000"
 preserveAspectRatio="xMidYMid meet">
<metadata>
Created by potrace 1.10, written by Peter Selinger 2001-2011
</metadata>
<g transform="translate(0.000000,512.000000) scale(0.050000,-0.050000)"
fill="#ffffff" stroke="none">
<path d="M4110 9287 c-1197 -177 -2121 -803 -2696 -1825 -52 -92 -94 -174 -94
-182 0 -8 -28 -76 -62 -151 -437 -965 -320 -2351 275 -3239 77 -115 81 -159
28 -333 -37 -121 -157 -558 -251 -912 -24 -91 -40 -165 -36 -165 14 0 336 82
436 110 55 16 275 74 488 130 l388 100 92 -57 c432 -271 940 -439 1492 -493
1817 -180 3473 1056 3813 2848 362 1900 -876 3731 -2788 4125 -199 40 -912 70
-1085 44z m-760 -1559 c68 -44 165 -250 423 -897 77 -193 66 -232 -141 -498
-202 -260 -201 -247 -13 -519 309 -448 646 -740 1130 -979 318 -158 312 -159
513 86 347 424 309 408 627 260 789 -368 811 -383 811 -529 -3 -741 -817
-1161 -1610 -832 -22 9 -89 31 -150 50 -692 209 -1265 608 -1809 1260 -159
191 -511 671 -511 698 0 5 -31 62 -69 126 -376 632 -242 1458 287 1775 97 59
422 58 512 -1z"/>
</g>
</svg>
