<?xml version="1.0" standalone="no"?>
<!DOCTYPE svg PUBLIC "-//W3C//DTD SVG 20010904//EN"
 "http://www.w3.org/TR/2001/REC-SVG-20010904/DTD/svg10.dtd">
<svg version="1.0" xmlns="http://www.w3.org/2000/svg"
 width="512.000000pt" height="512.000000pt" viewBox="0 0 512.000000 512.000000"
 preserveAspectRatio="xMidYMid meet">
<metadata>
Created by potrace 1.10, written by Peter Selinger 2001-2011
</metadata>
<g transform="translate(0.000000,512.000000) scale(0.100000,-0.100000)"
fill="#00ff7b" stroke="none">
<path d="M2055 4644 c-485 -72 -867 -283 -1166 -644 -78 -94 -229 -331 -229
-360 0 -4 -14 -38 -31 -75 -144 -318 -173 -771 -73 -1137 49 -180 126 -357
211 -483 38 -58 40 -80 14 -166 -19 -61 -79 -280 -126 -456 -12 -46 -20 -83
-18 -83 7 0 168 41 218 55 28 8 137 37 244 65 l194 50 46 -29 c295 -185 665
-275 1034 -250 151 10 233 23 367 60 436 121 817 420 1051 826 95 164 165 353
201 542 32 168 32 497 1 656 -89 455 -340 845 -718 1117 -185 133 -433 239
-678 289 -80 17 -146 22 -307 24 -113 2 -218 1 -235 -1z m-380 -780 c34 -22
82 -125 211 -448 39 -97 33 -116 -70 -250 -86 -111 -87 -113 -71 -153 19 -45
101 -163 176 -251 70 -84 183 -183 283 -249 93 -62 262 -144 307 -150 35 -5
38 -3 120 98 151 184 148 182 189 176 35 -5 105 -35 350 -154 170 -83 180 -91
180 -157 -1 -139 -52 -259 -145 -336 -119 -98 -277 -149 -420 -135 -59 6 -201
39 -240 55 -11 4 -45 16 -75 25 -346 105 -632 304 -904 630 -80 95 -256 336
-256 349 0 2 -16 31 -35 63 -45 77 -102 250 -110 338 -20 209 93 453 254 550
49 29 211 28 256 -1z"/>
</g>
</svg>
